<svg class="icon" viewBox="0 0 1024 1024" version="1.1" xmlns="http://www.w3.org/2000/svg" p-id="6266" width="24" height="24"><path d="M976.96810719 37.94159938a33.41887219 33.41887219 0 0 1 14.51950968 34.19884593l-137.15537062 822.87222844a33.83885813 33.83885813 0 0 1-17.0994225 24.11918531 33.23887781 33.23887781 0 0 1-16.6794375 4.19985844 36.41877094 36.41877094 0 0 1-12.83956688-2.63991094l-242.63181093-99.05665687-129.65562375 157.97466844a31.43893875 31.43893875 0 0 1-26.219115 12.35958281 29.57900156 29.57900156 0 0 1-11.81960156-2.15992688 33.35887406 33.35887406 0 0 1-16.31944875-12.59957531 33.41887219 33.41887219 0 0 1-6.17979188-19.55933906v-186.95369063l462.82437937-567.28085437-572.62067343 495.52327594L53.47927531 612.12222125c-13.19955469-4.97983219-20.39931187-14.75950219-21.41927718-29.39900812a31.79892656 31.79892656 0 0 1 17.15942062-31.61893313L940.54933625 36.80163781A32.93888812 32.93888812 0 0 1 957.768755 32.0018a32.99888625 32.99888625 0 0 1 19.31934844 5.93979937z" fill="#272636" p-id="6267"></path></svg>