<svg class="icon" viewBox="0 0 1024 1024" version="1.1" xmlns="http://www.w3.org/2000/svg" p-id="15078" width="24" height="24"><path d="M769.536 521.216c-137.728 0-248.832 111.104-248.832 248.832s111.104 248.832 248.832 248.832 248.832-111.104 248.832-248.832c0-137.216-111.104-248.832-248.832-248.832z m24.064 386.048h-49.152v-112.128h-113.152v-50.688h113.152v-112.128h49.152v112.128h113.152v50.688H793.6v112.128z m-320.512-137.216c0-57.856 16.896-110.592 45.056-156.16-1.024-8.192 0.512-18.432 6.656-31.232 31.232-42.496 50.688-90.624 52.224-106.496 0 0 49.152-38.4 51.2-95.744 3.072-57.344-10.24-59.904-10.24-59.904 20.48-62.464 26.624-296.96-123.392-269.312C469.504 1.536 311.808-36.864 238.08 94.208c-36.864 65.024-50.176 155.136-21.504 227.84-1.024 5.12-9.728-5.12-13.312 28.672-3.072 32.768 11.264 79.36 27.136 100.864 7.168 9.216 17.92 15.872 25.6 19.456 0 0 9.216 57.856 54.784 112.64 10.24 43.008-32.768 66.048-32.768 66.048-141.824 26.112-272.384 105.472-272.384 190.464v66.56c0 92.672 215.552 112.64 410.112 112.64 58.88 0 118.784-5.12 174.592-13.824-71.168-54.272-117.248-139.776-117.248-235.52z" fill="#272636" p-id="15079"></path></svg>