<?xml version="1.0" standalone="no"?><!DOCTYPE svg PUBLIC "-//W3C//DTD SVG 1.1//EN" "http://www.w3.org/Graphics/SVG/1.1/DTD/svg11.dtd"><svg t="1749711643903" class="icon" viewBox="0 0 1024 1024" version="1.1" xmlns="http://www.w3.org/2000/svg" p-id="16137" width="64" height="64" xmlns:xlink="http://www.w3.org/1999/xlink"><path d="M591.04 537.28c6.08 0 8.96 7.936 4.928 12.352-4.48 4.736-8.576 9.984-12.16 15.744l-4.352 7.296-2.368 4.8-3.712 8.384-1.728 4.416-98.624 278.08c-9.792 27.584-7.296 56.448 4.416 80.896 2.176 4.48-1.024 10.048-6.016 10.048H242.432a168.768 168.768 0 0 1-168.768-168.64 253.504 253.504 0 0 1 253.44-253.44h263.936zM635.712 603.264c19.904-36.544 73.6-37.248 94.4-1.216l3.968 8.32 106.624 278.4a41.6 41.6 0 0 1-77.696 29.76l-24.384-63.616H633.92l-22.144 62.656-3.584 7.68a41.6 41.6 0 0 1-74.816-35.52l98.624-278.08 3.712-8.384z m27.712 168.448h43.328l-22.528-58.688-20.8 58.688zM908.672 579.84c22.976 0 41.6 18.688 41.6 41.6v271.232a41.6 41.6 0 0 1-83.2 0V621.504c0-22.976 18.624-41.6 41.6-41.6zM517.888 64.64a212.032 212.032 0 1 1-0.064 424.128 212.032 212.032 0 0 1 0-424.064z" p-id="16138" fill="#707070"></path></svg>