<?xml version="1.0" standalone="no"?><!DOCTYPE svg PUBLIC "-//W3C//DTD SVG 1.1//EN" "http://www.w3.org/Graphics/SVG/1.1/DTD/svg11.dtd"><svg t="1756949300179" class="icon" viewBox="0 0 1024 1024" version="1.1" xmlns="http://www.w3.org/2000/svg" p-id="11603" xmlns:xlink="http://www.w3.org/1999/xlink" width="128" height="128"><path d="M384 896H156.586667A117.333333 117.333333 0 0 1 42.666667 775.68V162.986667A117.333333 117.333333 0 0 1 156.586667 42.666667h625.92A116.906667 116.906667 0 0 1 896 162.986667v181.333333a42.666667 42.666667 0 0 1-85.333333 0V162.986667a32.426667 32.426667 0 0 0-28.16-34.986667H156.586667a32.426667 32.426667 0 0 0-28.586667 34.986667v612.693333a32.853333 32.853333 0 0 0 28.586667 34.986667H384a42.666667 42.666667 0 0 1 0 85.333333z" p-id="11604"></path><path d="M401.066667 512H256a42.666667 42.666667 0 0 1 0-85.333333h145.066667a42.666667 42.666667 0 0 1 0 85.333333zM682.666667 341.333333H256a42.666667 42.666667 0 0 1 0-85.333333h426.666667a42.666667 42.666667 0 0 1 0 85.333333zM883.626667 981.333333a42.666667 42.666667 0 0 1-17.92-3.84l-103.68-47.36a258.56 258.56 0 0 1-58.026667 8.533334 271.786667 271.786667 0 0 1-277.333333-267.093334 271.786667 271.786667 0 0 1 277.333333-264.96 271.786667 271.786667 0 0 1 277.333333 264.96 256 256 0 0 1-57.6 160.426667l4.693334 101.12a45.226667 45.226667 0 0 1-19.2 39.253333 46.08 46.08 0 0 1-25.6 8.96zM768 837.973333a42.666667 42.666667 0 0 1 17.92 3.84l51.2 22.613334v-46.08a45.226667 45.226667 0 0 1 11.946667-32.426667 167.253333 167.253333 0 0 0 46.506666-114.346667 181.76 181.76 0 0 0-187.733333-174.933333 181.76 181.76 0 0 0-187.306667 174.933333 181.76 181.76 0 0 0 187.306667 175.36 193.706667 193.706667 0 0 0 50.773333-7.253333 35.84 35.84 0 0 1 9.386667-1.706667z" p-id="11605"></path><path d="M616.533333 683.946667m-32 0a32 32 0 1 0 64 0 32 32 0 1 0-64 0Z" p-id="11606"></path><path d="M718.506667 683.946667m-32 0a32 32 0 1 0 64 0 32 32 0 1 0-64 0Z" p-id="11607"></path><path d="M817.92 683.946667m-32 0a32 32 0 1 0 64 0 32 32 0 1 0-64 0Z" p-id="11608"></path></svg>