<?xml version="1.0" standalone="no"?><!DOCTYPE svg PUBLIC "-//W3C//DTD SVG 1.1//EN" "http://www.w3.org/Graphics/SVG/1.1/DTD/svg11.dtd"><svg t="1753778061150" class="icon" viewBox="0 0 1024 1024" version="1.1" xmlns="http://www.w3.org/2000/svg" p-id="6403" xmlns:xlink="http://www.w3.org/1999/xlink" width="128" height="128"><path d="M331.7 272.3c4.2 4.3 8.4 8.7 12.6 8.7s8.4 0 12.6-4.3c4.2-8.7 4.2-17.4 0-26l-67.3-78.1c-8.4-8.7-16.8-4.3-21 0-8.4 8.7-8.4 21.7 0 26l63.1 73.7z m349.3 8.6c4.2 0 8.4 0 12.6-4.3l63.2-73.8c4.2-8.7 4.2-17.4 0-26-4.2-8.7-16.9-8.7-21.1 0l-63.1 73.8c-4.2 8.7-4.2 17.4 0 26-0.1 0 4.2 4.3 8.4 4.3z m-168.4-26c8.4 0 16.8-8.7 16.8-17.3V120.4c0-8.7-8.4-17.3-16.8-17.3s-16.8 8.7-16.8 17.3v112.8c0 13 8.4 21.7 16.8 21.7z m420.8 351.4L803 385.1c-12.6-21.7-33.7-34.7-54.7-34.7H277c-21 0-42.1 13-54.7 34.7L91.9 606.3V858c0 34.7 25.2 65.1 58.9 65.1h723.8c33.7 0 58.9-30.4 58.9-65.1l-0.1-251.7zM243.3 406.8c8.4-13 16.8-17.3 29.5-17.3h471.3c12.6 0 25.2 8.7 29.4 17.3l117.8 199.6H617.8c-4.2 0-8.4 4.3-8.4 13v8.7c0 65.1-46.3 117.2-101 117.2s-101-52.1-101-117.2v-8.7c0-4.3-4.2-13-8.4-13H125.5l117.8-199.6zM908.2 832c0 47.7-12.6 65.1-58.9 65.1H167.6c-42.1 0-50.5-17.3-50.5-65.1V641.1h256.7c4.2 0 8.4 4.3 8.4 13v8.7c4.2 56.4 54.7 112.8 126.2 112.8s122-52.1 126.2-112.8v-8.7c0-4.3 4.2-13 8.4-13h256.7l8.5 190.9z" fill="#CCCCCC" p-id="6404"></path></svg>