<?xml version="1.0" standalone="no"?><!DOCTYPE svg PUBLIC "-//W3C//DTD SVG 1.1//EN" "http://www.w3.org/Graphics/SVG/1.1/DTD/svg11.dtd"><svg t="1760141305655" class="icon" viewBox="0 0 1024 1024" version="1.1" xmlns="http://www.w3.org/2000/svg" p-id="12059" xmlns:xlink="http://www.w3.org/1999/xlink" width="128" height="128"><path d="M317.952 684.4416v129.3824a107.776 107.776 0 1 1-215.552 0v-129.3824a107.776 107.776 0 1 1 215.552 0z m172.4928-194.048c59.5456 0 107.776 48.3328 107.776 107.8272v215.552a107.776 107.776 0 1 1-215.552 0v-215.552c0-59.4944 48.2304-107.776 107.776-107.776z m280.2688-86.1696c59.4944 0 107.776 48.2304 107.776 107.776v301.824a107.776 107.776 0 1 1-215.552 0V512c0-59.5456 48.2304-107.776 107.776-107.776z m60.1088-194.56l-293.888 208.1792A43.1104 43.1104 0 0 1 478.3104 409.6L416.8192 332.6464l-225.792 150.528a43.1104 43.1104 0 0 1-47.8208-71.7312l258.6624-172.4928a43.1104 43.1104 0 0 1 57.5488 9.0112l60.8256 76.032 260.7104-184.6784 49.8688 70.3488z" fill="#515151" p-id="12060"></path><path d="M856.9344 145.5104A43.1104 43.1104 0 0 0 813.824 102.4h-129.3824a43.1104 43.1104 0 1 0 0 86.2208h86.272v86.2208a43.1104 43.1104 0 0 0 86.2208 0V145.5104z" fill="#515151" p-id="12061"></path></svg>