<svg class="icon" viewBox="0 0 1024 1024" version="1.1" xmlns="http://www.w3.org/2000/svg" p-id="9872" width="24" height="24"><path d="M624.17 541.184c-41.194 40.277-68.863 70.57-82.986 90.88-36.821 52.97-44.63 106.432-44.63 150.507 0 55.466 14.72 107.456 40.47 152.234H76.694c-18.774 0-34.027-16.298-34.027-36.394V852.8c0-3.413 0.533-6.912 1.664-10.539 10.112-30.805 31.146-58.09 62.506-81.173 24.363-17.963 55.232-33.536 91.712-46.357 56.662-19.904 115.371-27.883 135.126-30.251 1.066-0.128-0.918-51.435-0.278-52.416 0.128-0.213 0-18.923-10.965-31.275a3.37 3.37 0 0 0-0.81-0.896c-32.47-27.456-60.118-66.56-80.278-113.493a4.032 4.032 0 0 0-3.072-2.496c-28.245-4.139-54.336-34.752-63.595-75.819-10.154-45.013 1.344-87.338 27.435-104.277a4.373 4.373 0 0 0 1.899-3.733c-1.366-86.059 19.2-154.347 61.226-202.987 54.016-62.613 128.192-75.755 180.864-75.755 52.694 0 126.848 13.142 180.907 75.755 42.027 48.64 62.592 116.907 61.227 202.987a4.395 4.395 0 0 0 1.898 3.733c26.07 16.939 37.568 59.243 27.435 104.277-9.28 41.067-35.37 71.68-63.616 75.819a4.032 4.032 0 0 0-3.093 2.475 361.268 361.268 0 0 1-23.168 45.226l-3.542 9.579zM768 981.334c-117.824 0-213.333-95.51-213.333-213.334S650.176 554.667 768 554.667 981.333 650.176 981.333 768 885.824 981.333 768 981.333z m-10.603-134.657L888.981 721.58a22.037 22.037 0 0 0 0-32.256 25.003 25.003 0 0 0-33.941 0L740.437 798.272l-59.477-56.47a25.003 25.003 0 0 0-33.92 0 22.037 22.037 0 0 0 0 32.278l76.416 72.597a25.003 25.003 0 0 0 33.941 0z" fill="#272636" p-id="9873"></path></svg>