<?xml version="1.0" standalone="no"?><!DOCTYPE svg PUBLIC "-//W3C//DTD SVG 1.1//EN" "http://www.w3.org/Graphics/SVG/1.1/DTD/svg11.dtd"><svg t="1752761390581" class="icon" viewBox="0 0 1024 1024" version="1.1" xmlns="http://www.w3.org/2000/svg" p-id="6294" xmlns:xlink="http://www.w3.org/1999/xlink" width="128" height="128"><path d="M509.22 894.05c-209.47 0-379.88-170.5-379.88-380.07h83.99c0 163.26 132.74 296.08 295.89 296.08 91.99 0 177.19-41.71 233.74-114.43l66.3 51.56c-72.58 93.33-181.94 146.86-300.04 146.86z" p-id="6295" data-spm-anchor-id="a313x.search_index.0.i17.3bb43a814y7Qrt" class="selected" fill="#1296db"></path><path d="M171.04 374.35l53.83 69.56 53.83 69.57-106.77 0.68-106.77 0.68 52.94-70.24z" p-id="6296" data-spm-anchor-id="a313x.search_index.0.i18.3bb43a814y7Qrt" class="selected" fill="#1296db"></path><path d="M896.88 514.35h-83.99c0-163.26-132.74-296.08-295.89-296.08-91.99 0-177.19 41.71-233.73 114.42l-66.3-51.55C289.53 187.81 398.89 134.28 517 134.28c209.46 0 379.88 170.5 379.88 380.07z" p-id="6297" data-spm-anchor-id="a313x.search_index.0.i14.3bb43a814y7Qrt" class="" fill="#1afa29"></path><path d="M855.18 653.98l-53.83-69.57-53.83-69.56 106.77-0.69 106.77-0.68-52.94 70.25z" p-id="6298" data-spm-anchor-id="a313x.search_index.0.i15.3bb43a814y7Qrt" class="" fill="#1afa29"></path></svg>