<?xml version="1.0" standalone="no"?><!DOCTYPE svg PUBLIC "-//W3C//DTD SVG 1.1//EN" "http://www.w3.org/Graphics/SVG/1.1/DTD/svg11.dtd"><svg t="1772768809635" class="icon" viewBox="0 0 1271 1024" version="1.1" xmlns="http://www.w3.org/2000/svg" p-id="11185" xmlns:xlink="http://www.w3.org/1999/xlink" width="79.4375" height="64"><path d="M189.357271 968.847397l-134.068489-133.659951a189.221092 189.221092 0 0 1 0-267.251812l160.963894-163.959838v13.617927a28.665736 28.665736 0 0 0 10.349625 24.920806 29.006184 29.006184 0 0 0 26.486867 5.447171l130.800186-33.432011-197.936565 200.387792a122.561341 122.561341 0 0 0 0 177.033048l56.991024 63.595717c50.25015 46.777578 97.231997 50.18206 171.041159-13.617926l77.077466-90.286854 90.627302 86.746193-127.463794 130.391648a186.701775 186.701775 0 0 1-264.936765 0z m472.610147-120.586741l-133.86422-133.591862a189.221092 189.221092 0 0 1 0-267.251811l97.504356 97.231996c-6.808963 40.104794-30.231797 53.518452 46.981847 110.373296l36.768402 60.191237a123.855044 123.855044 0 0 0 177.782033 0l217.886828-227.351287a122.561341 122.561341 0 0 0 0-177.033048l-46.913758-43.441186a123.855044 123.855044 0 0 0-177.782033 0l-40.240973 43.441186-87.290911-83.61407a765.66793 765.66793 0 0 0 73.741074-76.668927 186.633686 186.633686 0 0 1 264.936764 0l134.068489 133.591861s103.972871 147.141698 0 266.843274l-298.641134 297.619789a186.701775 186.701775 0 0 1-264.936764 0z m13.617927-293.73868a128.621318 128.621318 0 0 0-26.827316-140.400824l-43.577365-43.373097a6.808963 6.808963 0 0 1-6.808964-6.808963l16.81814-153.542124a130.936365 130.936365 0 0 1 33.500099 26.691136l134.068489 133.659951a189.221092 189.221092 0 0 1 0 267.251812l-107.309262-83.61407z" fill="#515151" p-id="11186"></path><path d="M189.49345 223.742536l140.128466 62.438194a38.334464 38.334464 0 1 1-31.185052 70.064233l-140.196555-62.438194a38.334464 38.334464 0 0 1 31.253141-70.064233z" fill="#515151" p-id="11187"></path><path d="M623.547937 53.646444m-11.846001 36.458241l-47.384003 145.832966q-11.846001 36.458242-48.304242 24.612241l0 0q-36.458242-11.846001-24.612241-48.304242l47.384003-145.832966q11.846001-36.458242 48.304242-24.612241l0 0q36.458242 11.846001 24.612241 48.304242Z" fill="#515151" p-id="11188"></path><path d="M360.194162 34.998072l62.370104 140.128466a38.334464 38.334464 0 0 1-70.064233 31.185052l-62.370104-140.128466a38.334464 38.334464 0 1 1 70.064233-31.185052z" fill="#515151" p-id="11189"></path></svg>